HIERARCHY
ROOT Hips
{
	OFFSET 0.000000 0.000000 0.000000
	CHANNELS 6 Xposition Yposition Zposition Xrotation Yrotation Zrotation
	JOINT LeftUpLeg_virtual
	{
		OFFSET 0.000000 0.000000 0.000000
		CHANNELS 3 Xrotation Yrotation Zrotation
		JOINT LeftUpLeg
		{
			OFFSET 13.026900 -6.336304 -1.092800
			CHANNELS 3 Xrotation Yrotation Zrotation
			JOINT LeftLeg
			{
				OFFSET 0.524474 -46.096886 9.782700
				CHANNELS 3 Xrotation Yrotation Zrotation
				JOINT LeftFoot
				{
					OFFSET -0.524474 -53.427422 -12.948200
					CHANNELS 3 Xrotation Yrotation Zrotation
					JOINT LeftToeBase
					{
						OFFSET 0.192200 -14.009700 16.364100
						CHANNELS 3 Xrotation Yrotation Zrotation
						JOINT LeftToe_End
						{
							OFFSET -1.784700 -0.561700 9.474800
							CHANNELS 3 Xrotation Yrotation Zrotation
							End Site
							{
								OFFSET 0 0 0
							}
						}
					}
				}
			}
		}
	}
	JOINT RightUpLeg_virtual
	{
		OFFSET 0.000000 0.000000 0.000000
		CHANNELS 3 Xrotation Yrotation Zrotation
		JOINT RightUpLeg
		{
			OFFSET -12.883000 -6.336304 -1.092800
			CHANNELS 3 Xrotation Yrotation Zrotation
			JOINT RightLeg
			{
				OFFSET -0.524587 -46.096825 9.782800
				CHANNELS 3 Xrotation Yrotation Zrotation
				JOINT RightFoot
				{
					OFFSET 0.524587 -53.427383 -12.948300
					CHANNELS 3 Xrotation Yrotation Zrotation
					JOINT RightToeBase
					{
						OFFSET -0.192200 -14.009700 16.364100
						CHANNELS 3 Xrotation Yrotation Zrotation
						JOINT RightToe_End
						{
							OFFSET 1.784700 -0.561700 9.474800
							CHANNELS 3 Xrotation Yrotation Zrotation
							End Site
							{
								OFFSET 0 0 0
							}
						}
					}
				}
			}
		}
	}
	JOINT Spine_virtual
	{
		OFFSET 0.000000 0.000000 0.000000
		CHANNELS 3 Xrotation Yrotation Zrotation
		JOINT Spine
		{
			OFFSET 0.072000 7.257294 -0.789700
			CHANNELS 3 Xrotation Yrotation Zrotation
			JOINT Spine1
			{
				OFFSET 0.000000 12.508769 -0.658067
				CHANNELS 3 Xrotation Yrotation Zrotation
				JOINT Spine1_split
				{
					OFFSET 0.000000 12.508769 -0.658067
					CHANNELS 3 Xrotation Yrotation Zrotation
					JOINT Spine2
					{
						OFFSET 0.000000 12.508769 -0.658067
						CHANNELS 3 Xrotation Yrotation Zrotation
						JOINT Neck_virtual
						{
							OFFSET 0.000000 0.000000 0.000000
							CHANNELS 3 Xrotation Yrotation Zrotation
							JOINT Neck
							{
								OFFSET 0.000000 14.033295 7.520400
								CHANNELS 3 Xrotation Yrotation Zrotation
								JOINT Head
								{
									OFFSET 0.000000 8.198502 5.703100
									CHANNELS 3 Xrotation Yrotation Zrotation
									JOINT HeadTop_End
									{
										OFFSET 0.000000 17.760803 13.332701
										CHANNELS 3 Xrotation Yrotation Zrotation
										End Site
										{
											OFFSET 0 0 0
										}
									}
								}
							}
						}
						JOINT LeftShoulder_virtual
						{
							OFFSET 0.000000 0.000000 0.000000
							CHANNELS 3 Xrotation Yrotation Zrotation
							JOINT LeftShoulder
							{
								OFFSET 6.292450 5.785301 -0.669000
								CHANNELS 3 Xrotation Yrotation Zrotation
								JOINT LeftShoulder_split
								{
									OFFSET 6.292450 5.785301 -0.669000
									CHANNELS 3 Xrotation Yrotation Zrotation
									JOINT LeftArm
									{
										OFFSET 13.907140 -6.093903 1.965100
										CHANNELS 3 Xrotation Yrotation Zrotation
										JOINT LeftForeArm
										{
											OFFSET 34.140198 0.000000 0.000000
											CHANNELS 3 Xrotation Yrotation Zrotation
											JOINT LeftHand
											{
												OFFSET 40.960209 0.000000 0.000000
												CHANNELS 3 Xrotation Yrotation Zrotation
												End Site
												{
													OFFSET 0 0 0
												}
											}
										}
									}
								}
							}
						}
						JOINT RightShoulder_virtual
						{
							OFFSET 0.000000 0.000000 0.000000
							CHANNELS 3 Xrotation Yrotation Zrotation
							JOINT RightShoulder
							{
								OFFSET -6.292450 5.785301 -0.669000
								CHANNELS 3 Xrotation Yrotation Zrotation
								JOINT RightShoulder_split
								{
									OFFSET -6.292450 5.785301 -0.669000
									CHANNELS 3 Xrotation Yrotation Zrotation
									JOINT RightArm
									{
										OFFSET -13.907140 -6.093903 1.965100
										CHANNELS 3 Xrotation Yrotation Zrotation
										JOINT RightForeArm
										{
											OFFSET -34.140198 0.000000 0.000000
											CHANNELS 3 Xrotation Yrotation Zrotation
											JOINT RightHand
											{
												OFFSET -40.960209 0.000000 0.000000
												CHANNELS 3 Xrotation Yrotation Zrotation
												End Site
												{
													OFFSET 0 0 0
												}
											}
										}
									}
								}
							}
						}
					}
				}
			}
		}
	}
}
MOTION
Frames: 10
Frame Time: 0.03333333
5.232672 171.406952 13.647745 0.000000 0.000000 0.000000 10.832241 -31.262756 5.803415 -78.596694 -2.731627 25.772476 65.391828 -9.633564 5.389745 18.868616 6.091741 -12.553889 -7.825169 2.523517 -1.462987 0.000000 0.000000 0.000000 10.659700 -31.945963 5.464428 -111.243373 -16.235300 -9.749265 94.947607 13.325380 -4.394222 28.281891 15.012064 29.811402 13.268874 -15.775340 -18.526832 0.000000 0.000000 0.000000 12.760317 -25.202954 6.277468 22.738806 -0.148508 -11.037179 12.945118 -3.205926 -0.170418 0.222316 0.219954 0.035565 0.000000 0.000000 0.000000 14.115941 -1.394952 -0.744914 2.056270 -1.156562 -5.491969 -20.248152 39.114840 -16.449594 0.000000 0.000000 0.000000 14.353088 -2.888428 -2.084302 13.552403 -5.673812 -2.295378 1.681376 -2.347348 -2.163032 -68.744187 -3.813039 9.644033 49.771356 -2.503425 25.733369 0.000000 0.000000 0.000000 18.977573 -1.416608 -0.704525 3.205835 16.766514 -6.729922 8.616737 6.961114 1.535176 -42.807934 -10.018748 -4.872454 -68.413210 49.073851 43.146489 0.000000 0.000000 0.000000 
5.248789 171.413284 13.755032 0.000000 0.000000 0.000000 10.866098 -31.186234 5.770550 -78.687269 -2.687268 25.816085 65.390851 -9.622272 5.365289 19.003622 6.093056 -12.566635 -7.866663 2.528470 -1.469213 0.000000 0.000000 0.000000 10.679147 -31.780153 5.394019 -111.190781 -16.174708 -9.602324 95.014871 13.285714 -4.438206 28.228670 15.019287 29.865730 13.241584 -15.768304 -18.535226 0.000000 0.000000 0.000000 12.769082 -25.017024 6.182807 22.779248 -0.215065 -11.060831 13.013908 -3.257142 -0.130019 0.232601 0.210607 0.024804 0.000000 0.000000 0.000000 14.201554 -1.423343 -0.748457 2.017627 -1.096503 -5.512005 -20.484719 39.468409 -16.223427 0.000000 0.000000 0.000000 14.423036 -2.928676 -2.007554 13.758157 -6.075097 -1.376040 1.692942 -2.342483 -1.676980 -69.865438 -4.904855 9.878813 49.337714 -2.132932 25.396750 0.000000 0.000000 0.000000 19.018686 -1.473202 -0.667462 3.293188 16.664654 -7.265089 8.848256 6.768164 0.948828 -43.261588 -9.840064 -5.096038 -68.599346 49.349626 43.272387 0.000000 0.000000 0.000000 
5.269448 171.462921 13.894876 0.000000 0.000000 0.000000 10.876339 -30.962026 5.689153 -78.915705 -2.711997 25.853431 65.465437 -9.671237 5.328602 19.264549 6.063443 -12.526847 -7.861359 2.538173 -1.478757 0.000000 0.000000 0.000000 10.674848 -31.456050 5.278128 -111.354889 -16.058140 -9.451927 95.236019 13.193866 -4.471592 28.385710 14.989818 29.886107 13.003771 -15.728484 -18.531808 0.000000 0.000000 0.000000 12.768440 -24.709669 6.086683 22.895633 -0.282682 -11.118176 13.098928 -3.346724 -0.119455 0.237878 0.200935 0.020535 0.000000 0.000000 0.000000 14.324563 -1.484698 -0.775412 1.995210 -1.004064 -5.506264 -20.723164 39.986741 -15.907994 0.000000 0.000000 0.000000 14.525869 -2.991879 -1.942664 14.001042 -6.585782 0.060343 1.811343 -2.238748 -1.610709 -70.964798 -6.973960 10.421459 48.694071 -1.497311 24.762443 0.000000 0.000000 0.000000 19.057280 -1.567136 -0.656988 3.544679 16.479961 -8.448180 8.989362 6.643447 0.949070 -44.079322 -9.754290 -5.410044 -68.856312 49.699175 43.544423 0.000000 0.000000 0.000000 
5.301619 171.559891 14.061489 0.000000 0.000000 0.000000 10.845791 -30.626281 5.548608 -79.207839 -2.807692 25.866831 65.556122 -9.773475 5.289149 19.591153 6.016182 -12.448471 -7.800765 2.552536 -1.493007 0.000000 0.000000 0.000000 10.641594 -31.065422 5.124121 -111.629067 -15.937189 -9.286180 95.509506 13.037821 -4.469379 28.683011 14.880797 29.849132 12.558911 -15.659030 -18.517392 0.000000 0.000000 0.000000 12.758703 -24.352691 5.988984 23.039669 -0.333022 -11.183761 13.188613 -3.457907 -0.138286 0.229741 0.199275 0.026883 0.000000 0.000000 0.000000 14.467131 -1.568128 -0.825535 1.998450 -0.880218 -5.470663 -20.905058 40.652835 -15.552059 0.000000 0.000000 0.000000 14.658163 -3.074646 -1.901846 14.262109 -7.161021 1.744486 2.005695 -2.107112 -1.958308 -71.890842 -9.536232 11.001033 47.963614 -0.706780 23.966015 0.000000 0.000000 0.000000 19.105701 -1.679634 -0.679543 3.910400 16.296001 -10.062701 9.115451 6.678504 1.276624 -45.086509 -9.744844 -5.658257 -69.066736 50.021464 43.845064 0.000000 0.000000 0.000000 
5.326676 171.696198 14.247459 0.000000 0.000000 0.000000 10.758672 -30.222207 5.342274 -79.497992 -2.963461 25.849326 65.595566 -9.918709 5.249633 19.930472 5.960059 -12.342892 -7.736625 2.568355 -1.507812 0.000000 0.000000 0.000000 10.556559 -30.672604 4.923848 -111.926071 -15.854109 -9.124174 95.766226 12.812026 -4.404840 29.058907 14.696646 29.767979 12.067476 -15.583053 -18.473177 0.000000 0.000000 0.000000 12.737039 -23.988813 5.871786 23.180721 -0.352355 -11.232426 13.280085 -3.578461 -0.187292 0.218639 0.194621 0.026408 0.000000 0.000000 0.000000 14.608892 -1.666377 -0.889090 2.032770 -0.725186 -5.398420 -20.981716 41.431709 -15.218228 0.000000 0.000000 0.000000 14.822038 -3.172421 -1.882817 14.525659 -7.740736 3.460356 2.290996 -1.946834 -2.368445 -72.577044 -12.249117 11.383284 47.239658 0.102105 23.168458 0.000000 0.000000 0.000000 19.184314 -1.800386 -0.728818 4.339961 16.209579 -11.790728 9.088487 6.725350 1.629083 -46.196886 -9.650990 -5.805925 -69.131056 50.207614 44.061957 0.000000 0.000000 0.000000 
5.337501 171.866882 14.428093 0.000000 0.000000 0.000000 10.624080 -29.839809 5.084706 -79.727091 -3.156815 25.820420 65.595211 -10.097481 5.220096 20.275174 5.899750 -12.230044 -7.706670 2.583409 -1.523933 0.000000 0.000000 0.000000 10.408621 -30.370409 4.682348 -112.158530 -15.845957 -8.983754 95.970373 12.556132 -4.285272 29.434577 14.494302 29.691553 11.653653 -15.517242 -18.392834 0.000000 0.000000 0.000000 12.696756 -23.696832 5.724234 23.299879 -0.334036 -11.248988 13.379645 -3.701961 -0.255837 0.219947 0.200070 0.030944 0.000000 0.000000 0.000000 14.732433 -1.773313 -0.948772 2.069305 -0.537166 -5.284752 -20.925975 42.271286 -14.965276 0.000000 0.000000 0.000000 15.013707 -3.279347 -1.879743 14.758987 -8.293862 4.964173 2.458169 -1.888922 -2.838619 -72.994102 -14.705512 11.573184 46.544088 0.724245 22.493360 0.000000 0.000000 0.000000 19.312725 -1.924208 -0.800667 4.797370 16.300619 -13.369104 8.897173 6.672274 1.955913 -47.239531 -9.326651 -5.774486 -68.986700 50.195467 44.108388 0.000000 0.000000 0.000000 
5.344329 172.035950 14.614950 0.000000 0.000000 0.000000 10.456910 -29.555338 4.802680 -79.890530 -3.363919 25.818315 65.639764 -10.284506 5.201139 20.621581 5.856578 -12.103411 -7.702476 2.599271 -1.547738 0.000000 0.000000 0.000000 10.218268 -30.177647 4.421499 -112.282805 -15.936349 -8.871455 96.115884 12.312275 -4.150838 29.709021 14.325541 29.670048 11.263815 -15.453674 -18.315782 0.000000 0.000000 0.000000 12.631923 -23.493937 5.543475 23.404173 -0.270242 -11.232105 13.504849 -3.817152 -0.326942 0.230860 0.208260 0.036502 0.000000 0.000000 0.000000 14.821142 -1.882183 -0.991920 2.093731 -0.322715 -5.137434 -20.739379 43.156513 -14.830460 0.000000 0.000000 0.000000 15.223669 -3.392557 -1.886238 14.943021 -8.817673 6.107454 2.492901 -1.975585 -3.154049 -73.332278 -16.767158 11.521920 45.878053 1.077893 22.003857 0.000000 0.000000 0.000000 19.490770 -2.042082 -0.877371 5.244986 16.552210 -14.611149 8.759195 6.547244 2.169048 -48.152516 -8.572185 -5.504321 -68.661706 50.005567 43.986592 0.000000 0.000000 0.000000 
5.343037 172.159454 14.781357 0.000000 0.000000 0.000000 10.259316 -29.421733 4.532230 -80.006705 -3.568938 25.866872 65.793375 -10.444978 5.193370 20.964139 5.869135 -11.951279 -7.690579 2.619729 -1.590404 0.000000 0.000000 0.000000 10.018002 -30.093752 4.169515 -112.292975 -16.122445 -8.779876 96.212442 12.096024 -4.031610 29.809019 14.217267 29.705917 10.886161 -15.388459 -18.272809 0.000000 0.000000 0.000000 12.522759 -23.405537 5.332515 23.530519 -0.174298 -11.191236 13.668613 -3.918092 -0.387016 0.245643 0.200913 0.036931 0.000000 0.000000 0.000000 14.891317 -1.980961 -1.007322 2.097555 -0.081467 -4.950338 -20.446562 44.077847 -14.837631 0.000000 0.000000 0.000000 15.445754 -3.497315 -1.883515 15.067529 -9.324591 6.800325 2.349139 -2.191771 -3.316023 -73.654513 -18.441232 11.243838 45.314221 1.125321 21.737220 0.000000 0.000000 0.000000 19.684897 -2.152881 -0.941294 5.648750 16.959488 -15.416656 8.654981 6.487525 2.335755 -48.897345 -7.324802 -4.922084 -68.094636 49.616065 43.602056 0.000000 0.000000 0.000000 
5.337295 172.212280 14.914927 0.000000 0.000000 0.000000 10.032718 -29.451038 4.303733 -80.083954 -3.769898 25.954849 66.063243 -10.555518 5.203418 21.272788 5.960739 -11.805183 -7.629302 2.645355 -1.655149 0.000000 0.000000 0.000000 9.818241 -30.109427 3.945226 -112.213219 -16.366469 -8.704593 96.298776 11.907110 -3.938545 29.742311 14.150793 29.752482 10.638739 -15.334873 -18.249094 0.000000 0.000000 0.000000 12.373510 -23.451516 5.117658 23.686671 -0.063147 -11.146135 13.870939 -3.997035 -0.431771 0.255589 0.184140 0.039810 0.000000 0.000000 0.000000 14.974505 -2.053881 -1.001187 2.075582 0.174681 -4.724970 -20.058174 44.994722 -15.011627 0.000000 0.000000 0.000000 15.677084 -3.581948 -1.869887 15.120280 -9.867142 6.990277 2.216029 -2.559323 -3.325484 -73.988441 -19.643096 10.789413 44.861372 0.902622 21.644255 0.000000 0.000000 0.000000 19.853535 -2.249493 -0.991842 5.966243 17.512178 -15.755430 8.596485 6.458207 2.408533 -49.513817 -5.664197 -3.960476 -67.257228 49.031333 42.896863 0.000000 0.000000 0.000000 
5.332861 172.202881 14.999027 0.000000 0.000000 0.000000 9.804207 -29.601804 4.140260 -80.122238 -3.971805 26.052944 66.405497 -10.624651 5.236951 21.524371 6.108075 -11.711143 -7.518676 2.673151 -1.733368 0.000000 0.000000 0.000000 9.629282 -30.197141 3.775214 -112.111046 -16.601915 -8.638276 96.413632 11.746568 -3.877364 29.580918 14.109026 29.784570 10.574980 -15.304724 -18.230700 0.000000 0.000000 0.000000 12.200055 -23.615382 4.932148 23.854852 0.043717 -11.106886 14.089763 -4.054417 -0.468771 0.251397 0.149955 0.041173 0.000000 0.000000 0.000000 15.092039 -2.098865 -0.989842 2.012444 0.430940 -4.476102 -19.570119 45.867244 -15.377382 0.000000 0.000000 0.000000 15.913217 -3.640893 -1.860705 15.106678 -10.511345 6.713970 2.154428 -2.920491 -3.143860 -74.358903 -20.439256 10.095394 44.456072 0.646209 21.585647 0.000000 0.000000 0.000000 19.993033 -2.323157 -1.035482 6.150981 18.159236 -15.652937 8.582159 6.488066 2.465526 -50.077598 -3.695359 -2.720536 -66.179506 48.291545 41.870689 0.000000 0.000000 0.000000 
